<mxfile host="app.diagrams.net" modified="2024-06-05T00:06:58.058Z" agent="Mozilla/5.0 (X11; Linux x86_64) AppleWebKit/537.36 (KHTML, like Gecko) Chrome/125.0.0.0 Safari/537.36" version="24.4.13" etag="cPsc_NEhxbnnBlus2z1w" type="github">
  <diagram name="Page-1" id="ZQYoR2bXF4td_HxUEjvD">
    <mxGraphModel>
      <root>
        <mxCell id="0" />
        <mxCell id="1" parent="0" />
      </root>
    </mxGraphModel>
  </diagram>
</mxfile>
